<?xml version="1.0" encoding="utf-8"?>
<!-- Generator: Adobe Illustrator 27.2.0, SVG Export Plug-In . SVG Version: 6.00 Build 0)  -->
<svg version="1.1" id="Layer_1" xmlns="http://www.w3.org/2000/svg" xmlns:xlink="http://www.w3.org/1999/xlink" x="0px" y="0px"
	 viewBox="0 0 512 512" style="enable-background:new 0 0 512 512;" xml:space="preserve">
<style type="text/css">
	.st0{fill:#EE4C2C;}
</style>
<g>
	<path class="st0" d="M65.67,221.7l-6.93,6.93c11.35,11.35,11.35,29.63,0,40.77c-11.35,11.35-29.63,11.35-40.77,0
		c-11.35-11.35-11.35-29.63,0-40.77l17.97-17.97l2.52-2.52v-13.55L11.35,221.7c-15.13,15.13-15.13,39.51,0,54.64
		c15.13,15.13,39.51,15.13,54.32,0C80.8,261.1,80.8,236.82,65.67,221.7z"/>
	<circle class="st0" cx="52.11" cy="214.97" r="5.04"/>
	<path d="M135.75,256.37h-11.66v29.94h-8.83V201.1c0,0,20.17,0,21.43,0c22.38,0,33.1,11.03,33.1,26.48
		C170.11,246.6,156.87,256.37,135.75,256.37z M136.69,209.61c-0.95,0-12.29,0-12.29,0v39.19l11.98-0.32
		c16.08-0.32,24.9-6.62,24.9-19.86C161.28,216.23,152.45,209.61,136.69,209.61z"/>
	<path d="M209.3,286l-5.04,13.55c-5.67,15.13-11.66,19.54-20.17,19.54c-4.73,0-8.2-1.26-11.98-2.84l2.52-7.88
		c2.84,1.58,5.99,2.84,9.46,2.84c4.73,0,8.2-2.52,12.92-14.5l4.1-11.03l-24.27-61.57h9.14l19.54,51.48l19.23-51.48h8.83L209.3,286z"
		/>
	<path d="M262.36,209.61v77.02h-8.83v-77.02h-29.94v-8.2h68.5v8.2C291.99,209.61,262.36,209.61,262.36,209.61z"/>
	<path d="M316.99,288.2c-17.34,0-29.94-12.92-29.94-32.78c0-19.86,13.24-33.1,30.89-33.1c17.65,0,29.94,12.92,29.94,32.78
		C347.57,274.96,334.33,288.2,316.99,288.2z M317.31,230.21c-13.24,0-21.75,10.4-21.75,25.22c0,15.13,8.83,25.53,22.06,25.53
		c13.24,0,21.75-10.4,21.75-25.22C339.37,240.29,330.55,230.21,317.31,230.21z"/>
	<path d="M369,286.63h-8.51v-62.52l8.51-1.89v13.24c4.1-7.88,10.09-13.24,18.28-13.24c4.1,0,7.88,1.26,11.03,2.84l-2.21,7.88
		c-2.84-1.58-5.99-2.84-9.46-2.84c-6.62,0-12.61,5.04-17.65,16.08V286.63z"/>
	<path d="M431.52,288.2c-18.91,0-30.57-13.55-30.57-32.78c0-19.54,12.92-33.1,30.57-33.1c7.56,0,14.18,1.89,19.54,5.36l-2.21,7.56
		c-4.73-3.15-10.72-5.04-17.34-5.04c-13.55,0-21.75,10.09-21.75,24.9c0,15.13,8.83,25.22,22.06,25.22c6.3,0,12.61-1.89,17.34-5.04
		l1.89,7.88C445.39,286.31,438.77,288.2,431.52,288.2z"/>
	<path d="M503.17,286.63v-40.45c0-11.03-4.41-15.76-13.24-15.76c-7.25,0-14.18,3.78-19.23,8.83v47.39h-8.51V194.8l8.51-1.89
		c0,0,0,39.19,0,39.51c6.62-6.62,14.81-9.77,21.75-9.77c11.98,0,19.54,7.88,19.54,21.43v42.66h-8.83V286.63z"/>
</g>
</svg>
